<?xml version="1.0" encoding="iso-8859-1"?>
<!-- Uploaded to: SVG Repo, www.svgrepo.com, Generator: SVG Repo Mixer Tools -->
<svg version="1.1" id="Layer_1" xmlns="http://www.w3.org/2000/svg" xmlns:xlink="http://www.w3.org/1999/xlink" 
	 viewBox="0 0 512 512" xml:space="preserve">
<circle style="fill:#EFEFEF;" cx="256" cy="256" r="256"/>
<path style="fill:#999999;" d="M448,155.12v-24.56c0-12.96-10.56-23.52-23.52-23.52H87.52C74.56,107.04,64,117.6,64,130.56v24.56
	H448z"/>
<g>
	<circle style="fill:#FFFFFF;" cx="97.12" cy="131.04" r="6.72"/>
	<circle style="fill:#FFFFFF;" cx="117.2" cy="131.04" r="6.72"/>
	<circle style="fill:#FFFFFF;" cx="137.28" cy="131.04" r="6.72"/>
	<path style="fill:#FFFFFF;" d="M388.24,142.8H204.08c-6.48,0-11.76-5.28-11.76-11.76l0,0c0-6.48,5.28-11.76,11.76-11.76h184.16
		c6.48,0,11.76,5.28,11.76,11.76l0,0C400,137.52,394.72,142.8,388.24,142.8z"/>
	<rect x="64" y="155.04" style="fill:#FFFFFF;" width="384" height="232"/>
</g>
<path style="fill:#00C454;" d="M304.72,329.76c-6.24,4.24-16.64,8.4-29.84,8.4c-16.24,0-30.72-6.24-40.72-17.84
	c-7.6-8.4-12.64-20.08-14.48-34.48h-12.4V276h11.44c0-0.96,0-2,0-3.04c0-3.2,0.16-6.24,0.4-9.04h-11.84v-10h13.28
	c2.4-14,8.4-25.68,16.4-33.92c10.24-10.64,23.28-16.64,39.68-16.64c11.84,0,21.04,3.44,26.64,6.4l-4,13.2
	c-5.04-3.04-13.44-5.6-22.48-5.6c-10.8,0-19.68,3.84-26.48,11.04c-6,5.84-10,14.8-12,25.44h56v10h-57.76c-0.16,2.64-0.4,5.6-0.4,8.4
	c0,1.2,0,2.24,0,3.6h58.16v9.84h-56.8c1.6,11.6,5.6,20.24,11.04,26.24c7.44,7.84,17.44,11.6,28.24,11.6c10.64,0,19.84-4,24.48-6.64
	L304.72,329.76z"/>
</svg>